<mxfile host="app.diagrams.net" modified="2023-09-21T15:00:23.661Z" agent="Mozilla/5.0 (Windows NT 10.0; Win64; x64) AppleWebKit/537.36 (KHTML, like Gecko) Chrome/116.0.0.0 Safari/537.36" version="21.7.1" etag="Aks_jdqaB5ka9NEXZ2DB" type="github">
  <diagram name="페이지-1" id="j2yFghRVwuGQoitiAyQ0">
    <mxGraphModel>
      <root>
        <mxCell id="0" />
        <mxCell id="1" parent="0" />
      </root>
    </mxGraphModel>
  </diagram>
</mxfile>
